<svg id="Grupo_1411" data-name="Grupo 1411" xmlns="http://www.w3.org/2000/svg" width="197" height="42.84" viewBox="0 0 197 42.84">
  <g id="Grupo_1289" data-name="Grupo 1289" transform="translate(0 0.02)">
    <path id="Trazado_1551" data-name="Trazado 1551" d="M514.475,650.421a7.351,7.351,0,0,1-6.883,4.738,7.855,7.855,0,0,1,0-15.7,7.257,7.257,0,0,1,6.922,4.922h4.3a11.656,11.656,0,0,0-11.232-9.364,12.275,12.275,0,0,0,0,24.529,11.7,11.7,0,0,0,11.229-9.127Z" transform="translate(-495.801 -635.018)" fill="#6f1d46"/>
    <path id="Trazado_1552" data-name="Trazado 1552" d="M537.092,635.4h-4.646l.034,16.086a4.94,4.94,0,0,1-9.592,0L522.9,635.4h-4.647s.04,16.214.04,16.279c0,4.329,4.265,7.838,9.395,7.838s9.447-3.509,9.447-7.838c0-.064-.041-16.279-.041-16.279" transform="translate(-494.248 -634.991)" fill="#6f1d46"/>
    <path id="Trazado_1553" data-name="Trazado 1553" d="M551.259,649.887v.005h-9.3V639.86h9.3a4.966,4.966,0,0,1,3.314,4.99,5.039,5.039,0,0,1-3.314,5.037m0-14.475H537.446v24.1h4.513v-5.225h9.3a9.619,9.619,0,0,0,0-18.874" transform="translate(-492.919 -634.991)" fill="#6f1d46"/>
  </g>
  <path id="Trazado_1554" data-name="Trazado 1554" d="M569.553,635.4h5.417L556.225,659.52h-5.415Z" transform="translate(-491.995 -634.971)" fill="#6f1d46"/>
  <path id="Trazado_1555" data-name="Trazado 1555" d="M580.6,647.4h-6.408V636.374l-4.643,5.983V647.4h-3.851l-3.6,4.494h7.451v7.564h4.643v-7.564H580.6Z" transform="translate(-491.214 -634.904)" fill="#6f1d46"/>
  <g id="Grupo_1290" data-name="Grupo 1290" transform="translate(90.017 0)">
    <path id="Trazado_1556" data-name="Trazado 1556" d="M581.236,655.318c1.836,1.877,5.429,2.973,8.891,2.973,3.885,0,7.681-1.445,7.681-4.94,0-4.108-3.907-4.422-8.621-5.3-4.234-.791-8.182-1.872-8.182-6.323,0-4.6,4.9-6.725,9.955-6.725a15.91,15.91,0,0,1,7.983,1.994l-1.2,1.477a13.592,13.592,0,0,0-7.006-1.784c-3.965,0-7.634,1.6-7.634,4.943,0,3.3,3.317,4.081,6.678,4.717,5.226.994,10.2,1.608,10.2,7,0,4.636-4.964,6.69-9.909,6.69-3.819,0-7.951-1.2-10.079-3.321Z" transform="translate(-579.993 -634.999)" fill="#6f1d46"/>
  </g>
  <path id="Trazado_1557" data-name="Trazado 1557" d="M610.8,637.123v22.47h-2.056v-22.47h-9V635.4H619.8v1.725Z" transform="translate(-488.609 -634.971)" fill="#6f1d46"/>
  <g id="Grupo_1291" data-name="Grupo 1291" transform="translate(130.884 0.018)">
    <path id="Trazado_1558" data-name="Trazado 1558" d="M620.272,647.507c0,6.436,3.813,10.783,10.091,10.783,6.453,0,10.125-4.335,10.125-10.783,0-6.363-3.736-10.75-10.125-10.75s-10.091,4.388-10.091,10.75m10.091-12.49c7.721,0,12.181,5.325,12.181,12.49,0,7.248-4.392,12.528-12.181,12.528-7.59,0-12.148-5.278-12.148-12.528,0-7.159,4.419-12.491,12.148-12.491Z" transform="translate(-618.215 -635.016)" fill="#6f1d46"/>
  </g>
  <path id="Trazado_1559" data-name="Trazado 1559" d="M660.628,659.593,646.16,638.831v20.762H644.1V635.4h2.485l14.474,20.769V635.4h2.056v24.194Z" transform="translate(-485.539 -634.971)" fill="#6f1d46"/>
  <path id="Trazado_1560" data-name="Trazado 1560" d="M667.975,637.123v9.133h11.965v1.725H667.975v9.888H681.03v1.725H665.918V635.4H681.03v1.725Z" transform="translate(-484.03 -634.971)" fill="#6f1d46"/>
  <path id="Trazado_1561" data-name="Trazado 1561" d="M534.051,665.356v7.686H538.8v.516h-5.351v-8.2Z" transform="translate(-493.196 -632.898)" fill="#6f1d46"/>
  <g id="Grupo_1292" data-name="Grupo 1292" transform="translate(46.753 34.638)">
    <path id="Trazado_1562" data-name="Trazado 1562" d="M542.4,672.9q2.265,0,2.266-2.518,0-2.473-2.266-2.473t-2.267,2.473q0,2.518,2.267,2.518m-2.869-2.5q0-3.012,2.869-3.012t2.868,3.012q0,3.005-2.868,3.005t-2.869-3.005" transform="translate(-539.528 -667.395)" fill="#6f1d46"/>
    <path id="Trazado_1563" data-name="Trazado 1563" d="M546.252,673.131v-.574a6.388,6.388,0,0,0,2.088.344q1.9,0,1.9-1.2,0-.975-1.406-.975h-.975q-1.892,0-1.892-1.607,0-1.721,2.506-1.72a7.541,7.541,0,0,1,2.083.286v.574a6.365,6.365,0,0,0-2.083-.344q-1.9,0-1.9,1.2,0,1.033,1.291,1.033h.975q2.008,0,2.008,1.549,0,1.721-2.5,1.72a7.558,7.558,0,0,1-2.088-.286" transform="translate(-539.083 -667.395)" fill="#6f1d46"/>
    <path id="Trazado_1564" data-name="Trazado 1564" d="M554.8,670h3.946q.138-2.1-1.836-2.1a1.918,1.918,0,0,0-2.11,2.1m4.514.539H554.8q0,2.364,2.787,2.363a7.5,7.5,0,0,0,1.6-.172v.517a9.312,9.312,0,0,1-1.94.172q-3.046,0-3.046-3.08,0-2.943,2.886-2.942,2.649,0,2.232,3.143" transform="translate(-538.513 -667.395)" fill="#6f1d46"/>
  </g>
  <path id="Trazado_1565" data-name="Trazado 1565" d="M559.84,667.395h.717l4.675,6.023h-.717Zm.717,6.023h-.717l4.676-6.023h.717Z" transform="translate(-491.37 -632.757)" fill="#6f1d46"/>
  <g id="Grupo_1293" data-name="Grupo 1293" transform="translate(74.866 32.457)">
    <path id="Trazado_1566" data-name="Trazado 1566" d="M566.424,672.535a6.9,6.9,0,0,0,1.853.31q2.335,0,2.335-2.6a2.048,2.048,0,0,0-2.323-2.311,14.87,14.87,0,0,0-1.865.137Zm-.6-4.893a12.254,12.254,0,0,1,2.478-.247q2.9,0,2.9,2.863,0,3.159-2.913,3.161a7.939,7.939,0,0,1-1.859-.288V675.6h-.6Z" transform="translate(-565.822 -665.215)" fill="#6f1d46"/>
    <path id="Trazado_1567" data-name="Trazado 1567" d="M572.525,670h3.946q.138-2.1-1.836-2.1a1.918,1.918,0,0,0-2.111,2.1m4.514.539h-4.514q0,2.364,2.787,2.363a7.5,7.5,0,0,0,1.6-.172v.517a9.314,9.314,0,0,1-1.94.172q-3.046,0-3.046-3.08,0-2.943,2.886-2.942,2.649,0,2.231,3.143" transform="translate(-565.4 -665.215)" fill="#6f1d46"/>
    <path id="Trazado_1568" data-name="Trazado 1568" d="M578.232,673.418v-6.023h.43l.075.769a1.791,1.791,0,0,1,1.618-.769v.481a1.612,1.612,0,0,0-1.521.763v4.778Z" transform="translate(-564.963 -665.215)" fill="#6f1d46"/>
    <path id="Trazado_1569" data-name="Trazado 1569" d="M581.237,666.483h.378l.115.975h1.515v.516h-1.407v3.8q0,1.187.9,1.188h.506v.515h-.5q-1.514,0-1.513-1.623Z" transform="translate(-564.755 -665.278)" fill="#6f1d46"/>
    <path id="Trazado_1570" data-name="Trazado 1570" d="M586.786,672.9q2.266,0,2.267-2.518,0-2.473-2.267-2.473t-2.266,2.473q0,2.518,2.266,2.518m-2.867-2.5q0-3.012,2.867-3.012t2.869,3.012q0,3.005-2.869,3.005t-2.867-3.005" transform="translate(-564.57 -665.215)" fill="#6f1d46"/>
    <path id="Trazado_1571" data-name="Trazado 1571" d="M590.643,673.131v-.574a6.388,6.388,0,0,0,2.088.344q1.9,0,1.9-1.2,0-.975-1.406-.975h-.975q-1.892,0-1.893-1.607,0-1.721,2.506-1.72a7.539,7.539,0,0,1,2.083.286v.574a6.364,6.364,0,0,0-2.083-.344q-1.9,0-1.9,1.2,0,1.033,1.291,1.033h.975q2.008,0,2.008,1.549,0,1.721-2.5,1.72a7.558,7.558,0,0,1-2.088-.286" transform="translate(-564.124 -665.215)" fill="#6f1d46"/>
    <path id="Trazado_1572" data-name="Trazado 1572" d="M599.195,670h3.946q.138-2.1-1.836-2.1a1.918,1.918,0,0,0-2.111,2.1m4.514.539h-4.514q0,2.364,2.788,2.363a7.5,7.5,0,0,0,1.6-.172v.517a9.315,9.315,0,0,1-1.94.172q-3.046,0-3.046-3.08,0-2.943,2.886-2.942,2.649,0,2.231,3.143" transform="translate(-563.554 -665.215)" fill="#6f1d46"/>
    <path id="Trazado_1573" data-name="Trazado 1573" d="M604.9,673.418v-6.023h.43l.075.769a5.885,5.885,0,0,1,2.6-.769q1.968,0,1.967,1.9v4.124h-.6v-4.142q0-1.342-1.509-1.342a4.681,4.681,0,0,0-2.364.763v4.72Z" transform="translate(-563.118 -665.215)" fill="#6f1d46"/>
    <path id="Trazado_1574" data-name="Trazado 1574" d="M613.862,673.559v-8.2h3.5q2.34,0,2.34,1.967,0,2.22-3.264,2.748l-.16-.493q2.752-.431,2.753-2.209,0-1.48-1.766-1.48h-2.8v7.669Z" transform="translate(-562.498 -665.356)" fill="#6f1d46"/>
  </g>
  <path id="Trazado_1575" data-name="Trazado 1575" d="M620.53,673.559h.6v-6.023h-.6Zm0-7.629h.6v-.573h-.6Z" transform="translate(-487.171 -632.898)" fill="#6f1d46"/>
  <g id="Grupo_1294" data-name="Grupo 1294" transform="translate(135.396 32.457)">
    <path id="Trazado_1576" data-name="Trazado 1576" d="M623.038,670h3.946q.138-2.1-1.836-2.1a1.918,1.918,0,0,0-2.111,2.1m4.514.539h-4.514q0,2.364,2.788,2.363a7.5,7.5,0,0,0,1.6-.172v.517a9.315,9.315,0,0,1-1.94.172q-3.046,0-3.046-3.08,0-2.943,2.886-2.942,2.65,0,2.232,3.143" transform="translate(-622.435 -665.215)" fill="#6f1d46"/>
    <path id="Trazado_1577" data-name="Trazado 1577" d="M633.267,668.419a7.264,7.264,0,0,0-1.928-.31,1.988,1.988,0,0,0-2.22,2.277q0,2.634,2.22,2.634a9.823,9.823,0,0,0,1.928-.225Zm.6,4.778a8.716,8.716,0,0,1-2.7.362q-2.691,0-2.69-3.132,0-2.892,2.857-2.891a8.271,8.271,0,0,1,1.933.287v-2.467h.6Z" transform="translate(-622.017 -665.356)" fill="#6f1d46"/>
    <path id="Trazado_1578" data-name="Trazado 1578" d="M635.129,673.418v-6.023h.43l.075.769a1.791,1.791,0,0,1,1.618-.769v.481a1.611,1.611,0,0,0-1.52.763v4.778Z" transform="translate(-621.557 -665.215)" fill="#6f1d46"/>
    <path id="Trazado_1579" data-name="Trazado 1579" d="M640.424,670.378q-1.957,0-1.957,1.2,0,1.318,1.664,1.319a5.619,5.619,0,0,0,2.209-.471v-1.938a16.3,16.3,0,0,0-1.916-.115m-2.559,1.222q0-1.739,2.559-1.739a16.976,16.976,0,0,1,1.916.116v-.74q0-1.326-2.083-1.326a6.766,6.766,0,0,0-1.9.287v-.515a6.728,6.728,0,0,1,1.9-.288q2.685,0,2.685,1.928v4.1h-.367l-.2-.424a6.7,6.7,0,0,1-2.248.424q-2.265,0-2.266-1.819" transform="translate(-621.367 -665.215)" fill="#6f1d46"/>
  </g>
  <path id="Trazado_1580" data-name="Trazado 1580" d="M646.825,673.559v-8.2h.774l5.479,7.124v-7.124h.545v8.2h-.488l-5.765-7.526v7.526Z" transform="translate(-485.351 -632.899)" fill="#6f1d46"/>
  <g id="Grupo_1295" data-name="Grupo 1295" transform="translate(169.705 33.662)">
    <path id="Trazado_1581" data-name="Trazado 1581" d="M657.082,670.378q-1.957,0-1.957,1.2,0,1.318,1.664,1.319a5.62,5.62,0,0,0,2.209-.471v-1.938a16.3,16.3,0,0,0-1.916-.115m-2.559,1.222q0-1.739,2.559-1.739a16.981,16.981,0,0,1,1.916.116v-.74q0-1.326-2.083-1.326a6.765,6.765,0,0,0-1.9.287v-.515a6.727,6.727,0,0,1,1.9-.288q2.685,0,2.685,1.928v4.1h-.367l-.2-.424a6.7,6.7,0,0,1-2.248.424q-2.265,0-2.266-1.819" transform="translate(-654.524 -666.42)" fill="#6f1d46"/>
    <path id="Trazado_1582" data-name="Trazado 1582" d="M660.882,666.483h.378l.115.975h1.515v.516h-1.406v3.8q0,1.187.9,1.188h.5v.515H662.4q-1.514,0-1.514-1.623Z" transform="translate(-654.084 -666.483)" fill="#6f1d46"/>
    <path id="Trazado_1583" data-name="Trazado 1583" d="M668.909,667.395v6.023h-.442l-.069-.769a5.879,5.879,0,0,1-2.6.769q-1.963,0-1.962-2.242v-3.781h.6v3.8a1.486,1.486,0,0,0,1.675,1.686,4.524,4.524,0,0,0,2.2-.763v-4.72Z" transform="translate(-653.88 -666.42)" fill="#6f1d46"/>
    <path id="Trazado_1584" data-name="Trazado 1584" d="M670.19,673.418v-6.023h.43l.075.769a1.792,1.792,0,0,1,1.618-.769v.481a1.611,1.611,0,0,0-1.52.763v4.778Z" transform="translate(-653.44 -666.42)" fill="#6f1d46"/>
    <path id="Trazado_1585" data-name="Trazado 1585" d="M675.484,670.378q-1.956,0-1.956,1.2,0,1.318,1.663,1.319a5.63,5.63,0,0,0,2.21-.471v-1.938a16.33,16.33,0,0,0-1.917-.115m-2.557,1.222q0-1.739,2.557-1.739a17.027,17.027,0,0,1,1.917.116v-.74q0-1.326-2.083-1.326a6.752,6.752,0,0,0-1.9.287v-.515a6.714,6.714,0,0,1,1.9-.288q2.683,0,2.684,1.928v4.1h-.367l-.2-.424a6.7,6.7,0,0,1-2.248.424q-2.265,0-2.265-1.819" transform="translate(-653.25 -666.42)" fill="#6f1d46"/>
  </g>
  <rect id="Rectángulo_507" data-name="Rectángulo 507" width="0.602" height="8.203" transform="translate(196.179 32.457)" fill="#6f1d46"/>
</svg>
