<svg xmlns="http://www.w3.org/2000/svg" width="25.724" height="20.202" viewBox="0 0 25.724 20.202">
  <g id="fax" transform="translate(0 -13.738)">
    <path id="Trazado_20090" data-name="Trazado 20090" d="M25.372,19.772H23.714V14.09a.352.352,0,0,0-.352-.352H11.254a.352.352,0,0,0-.352.352v5.682H9.6v-.385a1.157,1.157,0,0,0-1.156-1.155H4.288a1.157,1.157,0,0,0-1.156,1.156v.385H.352A.352.352,0,0,0,0,20.124V32.048a.352.352,0,0,0,.352.352H3.132v.385A1.157,1.157,0,0,0,4.288,33.94H8.441A1.157,1.157,0,0,0,9.6,32.785V32.4H25.372a.352.352,0,0,0,.352-.352V20.124a.352.352,0,0,0-.352-.352Zm-13.766-5.33h11.4v5.33h-11.4ZM.7,31.7V20.475H3.132V31.7Zm8.19,1.088a.453.453,0,0,1-.452.452H4.288a.453.453,0,0,1-.452-.452v-13.4a.453.453,0,0,1,.452-.452H8.441a.453.453,0,0,1,.452.452v13.4ZM25.021,31.7H9.6V20.475H25.021Z" transform="translate(0 0)" fill="#6c1d45"/>
    <path id="Trazado_20091" data-name="Trazado 20091" d="M55.486,80.687a1.235,1.235,0,0,0-1.234,1.234v.729a1.234,1.234,0,1,0,2.468,0v-.729A1.235,1.235,0,0,0,55.486,80.687Zm.531,1.963a.531.531,0,1,1-1.061,0v-.729a.531.531,0,1,1,1.061,0Z" transform="translate(-43.349 -53.494)" fill="#6c1d45"/>
    <path id="Trazado_20092" data-name="Trazado 20092" d="M72.642,80.687a1.235,1.235,0,0,0-1.234,1.234v.729a1.234,1.234,0,1,0,2.468,0v-.729A1.235,1.235,0,0,0,72.642,80.687Zm.531,1.963a.531.531,0,1,1-1.061,0v-.729a.531.531,0,1,1,1.061,0Z" transform="translate(-57.057 -53.494)" fill="#6c1d45"/>
    <path id="Trazado_20093" data-name="Trazado 20093" d="M89.793,80.687a1.235,1.235,0,0,0-1.234,1.234v.729a1.234,1.234,0,1,0,2.468,0v-.729A1.235,1.235,0,0,0,89.793,80.687Zm.531,1.963a.531.531,0,1,1-1.061,0v-.729a.531.531,0,1,1,1.061,0Z" transform="translate(-70.761 -53.494)" fill="#6c1d45"/>
    <path id="Trazado_20094" data-name="Trazado 20094" d="M106.953,80.687a1.235,1.235,0,0,0-1.234,1.234v.729a1.234,1.234,0,1,0,2.468,0v-.729A1.235,1.235,0,0,0,106.953,80.687Zm.531,1.963a.531.531,0,1,1-1.061,0v-.729a.531.531,0,1,1,1.061,0Z" transform="translate(-84.473 -53.494)" fill="#6c1d45"/>
    <path id="Trazado_20095" data-name="Trazado 20095" d="M54.6,53.762a.352.352,0,0,0-.352.352v3.4a.352.352,0,0,0,.352.352H66.71a.352.352,0,0,0,.352-.352v-3.4a.352.352,0,0,0-.352-.352Zm11.757,3.4h-11.4v-2.7h11.4Z" transform="translate(-43.347 -31.98)" fill="#6c1d45"/>
    <path id="Trazado_20096" data-name="Trazado 20096" d="M73.065,33.754H65.228a.352.352,0,0,0,0,.7h7.838a.352.352,0,0,0,0-.7Z" transform="translate(-51.838 -15.993)" fill="#6c1d45"/>
    <path id="Trazado_20097" data-name="Trazado 20097" d="M73.065,23.746H65.228a.352.352,0,0,0,0,.7h7.838a.352.352,0,0,0,0-.7Z" transform="translate(-51.838 -7.997)" fill="#6c1d45"/>
  </g>
</svg>
