<svg id="telephone_1_" data-name="telephone(1)" xmlns="http://www.w3.org/2000/svg" width="19.372" height="19.446" viewBox="0 0 19.372 19.446">
  <path id="Trazado_20085" data-name="Trazado 20085" d="M4.837,12.926A20.63,20.63,0,0,0,11.7,18.3a10.68,10.68,0,0,0,3.84,1.136c.093,0,.181.008.274.008a3.18,3.18,0,0,0,2.466-1.06.088.088,0,0,0,.016-.02,10.383,10.383,0,0,1,.778-.806c.189-.181.383-.371.568-.564a1.946,1.946,0,0,0-.008-2.9l-2.422-2.422a1.96,1.96,0,0,0-1.418-.653,2.026,2.026,0,0,0-1.434.649l-1.443,1.443c-.133-.077-.27-.145-.4-.21a4.983,4.983,0,0,1-.443-.242,15.267,15.267,0,0,1-3.647-3.32A8.792,8.792,0,0,1,7.195,7.378c.379-.342.733-.7,1.076-1.052.121-.125.246-.25.371-.375A2.066,2.066,0,0,0,9.31,4.5,2.049,2.049,0,0,0,8.641,3.05l-1.2-1.2c-.141-.141-.274-.278-.411-.419-.266-.274-.544-.556-.818-.81A2.009,2.009,0,0,0,4.793,0,2.068,2.068,0,0,0,3.359.625L1.852,2.132A3.1,3.1,0,0,0,.929,4.114a7.457,7.457,0,0,0,.56,3.224A18.753,18.753,0,0,0,4.837,12.926ZM1.912,4.2a2.131,2.131,0,0,1,.641-1.37l1.5-1.5A1.085,1.085,0,0,1,4.793.987a1.03,1.03,0,0,1,.725.351c.27.25.524.512.8.79.137.141.278.282.419.427l1.2,1.2a1.094,1.094,0,0,1,.379.753,1.094,1.094,0,0,1-.379.753c-.125.125-.25.254-.375.379-.375.379-.725.737-1.112,1.08l-.02.02a.788.788,0,0,0-.2.895c0,.012.008.02.012.032a9.483,9.483,0,0,0,1.414,2.3,16.113,16.113,0,0,0,3.884,3.538,5.768,5.768,0,0,0,.532.29,4.983,4.983,0,0,1,.443.242l.044.024a.842.842,0,0,0,.391.1.855.855,0,0,0,.6-.274l1.507-1.507a1.066,1.066,0,0,1,.737-.359,1.012,1.012,0,0,1,.713.359l2.43,2.426a.972.972,0,0,1-.012,1.519c-.169.181-.347.355-.536.536a11.6,11.6,0,0,0-.842.874,2.212,2.212,0,0,1-1.729.733c-.069,0-.141,0-.21-.008a9.7,9.7,0,0,1-3.473-1.04A19.6,19.6,0,0,1,5.6,12.306a17.95,17.95,0,0,1-3.183-5.3A6.5,6.5,0,0,1,1.912,4.2Z" transform="translate(-0.912 0)" fill="#6c1d45"/>
</svg>
