<svg xmlns="http://www.w3.org/2000/svg" width="12.633" height="22.293" viewBox="0 0 12.633 22.293">
  <g id="smartphone" transform="translate(-13)">
    <path id="Trazado_20099" data-name="Trazado 20099" d="M24,0H14.637A1.639,1.639,0,0,0,13,1.637V20.656a1.639,1.639,0,0,0,1.637,1.637H24a1.639,1.639,0,0,0,1.637-1.637V1.637A1.639,1.639,0,0,0,24,0ZM13.743,2.972H24.89V17.091H13.743ZM14.637.743H24a.9.9,0,0,1,.894.894v.593H13.743V1.637A.9.9,0,0,1,14.637.743ZM24,21.55H14.637a.9.9,0,0,1-.894-.894V17.834H24.89v2.822A.9.9,0,0,1,24,21.55Z" fill="#6c1d45"/>
    <path id="Trazado_20100" data-name="Trazado 20100" d="M27.486,49a1.486,1.486,0,1,0,1.486,1.486A1.488,1.488,0,0,0,27.486,49Zm0,2.229a.743.743,0,1,1,.743-.743A.744.744,0,0,1,27.486,51.229Z" transform="translate(-8.17 -30.794)" fill="#6c1d45"/>
    <path id="Trazado_20101" data-name="Trazado 20101" d="M25.372,3.743h1.486a.372.372,0,1,0,0-.743H25.372a.372.372,0,1,0,0,.743Z" transform="translate(-7.541 -1.885)" fill="#6c1d45"/>
    <path id="Trazado_20102" data-name="Trazado 20102" d="M32.372,3.743h.372a.372.372,0,0,0,0-.743h-.372a.372.372,0,1,0,0,.743Z" transform="translate(-11.941 -1.885)" fill="#6c1d45"/>
  </g>
</svg>
