<svg xmlns="http://www.w3.org/2000/svg" width="14.838" height="17.785" viewBox="0 0 14.838 17.785">
  <g id="user" transform="translate(0 0)">
    <path id="Trazado_20103" data-name="Trazado 20103" d="M91.315,8.567a4.145,4.145,0,0,0,3.029-1.255A4.145,4.145,0,0,0,95.6,4.284a4.145,4.145,0,0,0-1.255-3.029,4.283,4.283,0,0,0-6.057,0,4.145,4.145,0,0,0-1.255,3.029,4.145,4.145,0,0,0,1.255,3.029A4.146,4.146,0,0,0,91.315,8.567ZM89.024,1.992a3.24,3.24,0,0,1,4.583,0,3.1,3.1,0,0,1,.95,2.292,3.1,3.1,0,0,1-.95,2.292,3.24,3.24,0,0,1-4.583,0,3.1,3.1,0,0,1-.95-2.292,3.1,3.1,0,0,1,.95-2.292Zm0,0" transform="translate(-84.009)" fill="#6c1d45"/>
    <path id="Trazado_20104" data-name="Trazado 20104" d="M14.8,252.4a10.58,10.58,0,0,0-.144-1.124,8.856,8.856,0,0,0-.276-1.13,5.581,5.581,0,0,0-.465-1.054,3.972,3.972,0,0,0-.7-.913,3.088,3.088,0,0,0-1.006-.632,3.477,3.477,0,0,0-1.284-.232,1.3,1.3,0,0,0-.7.3c-.209.136-.453.293-.725.468a4.155,4.155,0,0,1-.938.413,3.644,3.644,0,0,1-2.3,0,4.141,4.141,0,0,1-.938-.413c-.27-.172-.514-.33-.726-.468a1.3,1.3,0,0,0-.7-.3,3.473,3.473,0,0,0-1.284.233,3.085,3.085,0,0,0-1.006.632,3.972,3.972,0,0,0-.7.913,5.591,5.591,0,0,0-.464,1.054,8.875,8.875,0,0,0-.276,1.13A10.508,10.508,0,0,0,.035,252.4c-.024.34-.036.693-.036,1.05a2.953,2.953,0,0,0,.877,2.234,3.157,3.157,0,0,0,2.26.824H11.7a3.157,3.157,0,0,0,2.26-.824,2.952,2.952,0,0,0,.877-2.234c0-.358-.012-.712-.036-1.051Zm-1.56,2.53a2.126,2.126,0,0,1-1.542.537H3.137a2.126,2.126,0,0,1-1.542-.537,1.929,1.929,0,0,1-.553-1.479c0-.333.011-.662.033-.978a9.48,9.48,0,0,1,.13-1.012,7.83,7.83,0,0,1,.243-1,4.552,4.552,0,0,1,.378-.857,2.945,2.945,0,0,1,.515-.675,2.049,2.049,0,0,1,.669-.416,2.4,2.4,0,0,1,.821-.158c.037.019.1.056.207.125.214.14.461.3.734.473a5.163,5.163,0,0,0,1.178.526,4.685,4.685,0,0,0,2.937,0,5.17,5.17,0,0,0,1.179-.527c.279-.179.519-.333.734-.473.105-.069.17-.106.207-.125a2.4,2.4,0,0,1,.821.158,2.051,2.051,0,0,1,.669.416,2.938,2.938,0,0,1,.515.675,4.537,4.537,0,0,1,.378.857,7.809,7.809,0,0,1,.243,1,9.559,9.559,0,0,1,.13,1.012h0c.022.315.033.644.033.978a1.928,1.928,0,0,1-.554,1.479Zm0,0" transform="translate(0 -238.725)" fill="#6c1d45"/>
  </g>
</svg>
