<svg width="386" height="386" viewBox="0 0 386 386" fill="none" xmlns="http://www.w3.org/2000/svg">
<g clip-path="url(#clip0_93_9)">
<path d="M193 0C154.828 0 117.514 11.3193 85.775 32.5264C54.0363 53.7335 29.2991 83.876 14.6913 119.142C0.0836242 154.408 -3.73842 193.214 3.70853 230.652C11.1555 268.091 29.5369 302.48 56.5285 329.472C83.52 356.463 117.909 374.845 155.348 382.292C192.786 389.738 231.592 385.916 266.858 371.309C302.124 356.701 332.267 331.964 353.474 300.225C374.681 268.486 386 231.172 386 193C385.944 141.83 365.592 92.7725 329.41 56.5901C293.228 20.4077 244.17 0.0558879 193 0ZM193 353.833C161.19 353.833 130.095 344.401 103.646 326.728C77.197 309.055 56.5826 283.937 44.4095 254.548C32.2364 225.16 29.0513 192.822 35.2571 161.623C41.4629 130.424 56.7808 101.767 79.2737 79.2737C101.767 56.7807 130.424 41.4628 161.623 35.257C192.822 29.0512 225.16 32.2363 254.548 44.4094C283.937 56.5825 309.056 77.1969 326.728 103.646C344.401 130.095 353.833 161.19 353.833 193C353.785 235.641 336.825 276.522 306.673 306.673C276.522 336.825 235.641 353.785 193 353.833Z" fill="white"/>
<path d="M256.919 171.891L184.267 121.178C180.409 118.488 175.887 116.906 171.192 116.605C166.498 116.303 161.81 117.295 157.64 119.471C153.469 121.647 149.975 124.924 147.536 128.947C145.097 132.97 143.808 137.584 143.808 142.288V243.713C143.804 248.419 145.092 253.035 147.529 257.06C149.967 261.085 153.462 264.364 157.634 266.541C161.806 268.717 166.495 269.708 171.191 269.405C175.887 269.102 180.41 267.517 184.267 264.822L256.919 214.109V214.096C260.317 211.725 263.092 208.568 265.009 204.894C266.925 201.22 267.926 197.137 267.926 192.993C267.926 188.849 266.925 184.767 265.009 181.093C263.092 177.419 260.317 174.262 256.919 171.891Z" fill="white"/>
</g>
<defs>
<clipPath id="clip0_93_9">
<rect width="386" height="386" fill="white"/>
</clipPath>
</defs>
</svg>
